<svg version="1.1" id="Layer_1" xmlns="http://www.w3.org/2000/svg" x="0" y="0" viewBox="-749 751 500 500" style="enable-background:new -749 751 500 500" xml:space="preserve"><path id="XMLID_4_" d="M-349.2 1094.6c-50.3 49.6-100.2 98.8-149.5 147.4l-147-147c16.9-17 34.8-34.9 53-53.2l93.5 93.5c5.4-6.1 9.9-11.6 14.8-16.6 24.5-24.7 49.3-49.2 73.7-74 4.6-4.7 7.2-4.5 11.6.1 14.4 15.2 29.2 30 43.9 44.9 1.5 1.4 3.2 2.6 6 4.9zm-55-133.2-94.1-94.1c-32.9 32.2-64.5 63-95.7 93.4-16.8-16.9-35-35.1-52.7-52.9 49-49 98.4-98.3 148.6-148.5 48.6 48.8 98.2 98.7 147.9 148.7-18 17.9-35.9 35.5-54 53.4zm-39.8 39.2c-18.7 18.8-36.8 37-54.5 54.8-18-18.1-36.3-36.5-53.9-54.2 17.5-17.5 36.1-36 54.1-54 17.6 17.4 36.3 35.7 54.3 53.4zm132.2 54.8c-17.7-17.7-35.7-35.8-53-53.1 18-17.9 36.1-36 54.4-54.2 17.1 17.3 35.1 35.4 52.7 53.2l-54.1 54.1zm-373.7.2c-19.2-19.1-37-37-54.3-54.2l54.2-54.2c17.2 17.3 35.3 35.5 51.7 51.9-17.5 19.2-34.8 38.1-51.6 56.5z" style="fill:#f2b740"/></svg>