<svg xmlns="http://www.w3.org/2000/svg" width="512" height="512" style="enable-background:new 0 0 512 512" xml:space="preserve"><g xmlns="http://www.w3.org/2000/svg" fill="#fff"><path d="M445.043 303.547v-95.094c23.075-6.548 40.032-27.793 40.032-52.937 0-30.345-24.688-55.031-55.032-55.031-14.887 0-28.402 5.951-38.319 15.587l-82.369-47.555a54.964 54.964 0 0 0 1.677-13.484C311.032 24.688 286.345 0 256 0s-55.032 24.688-55.032 55.032c0 4.651.586 9.167 1.677 13.484l-82.369 47.555c-9.917-9.636-23.433-15.587-38.32-15.587-30.345 0-55.032 24.687-55.032 55.031 0 25.145 16.957 46.389 40.032 52.937v95.094c-23.075 6.548-40.032 27.793-40.032 52.937 0 30.345 24.687 55.031 55.032 55.031 14.887 0 28.403-5.951 38.319-15.587l82.369 47.555a54.964 54.964 0 0 0-1.677 13.484C200.968 487.313 225.655 512 256 512s55.032-24.688 55.032-55.032c0-4.651-.586-9.167-1.677-13.484l82.369-47.555c9.917 9.636 23.432 15.587 38.319 15.587 30.345 0 55.032-24.687 55.032-55.031 0-25.145-16.957-46.39-40.032-52.938zM271 404.031v-38.982c-4.931.668-9.939 1.015-15 1.015s-10.069-.347-15-1.015v38.982a55.047 55.047 0 0 0-23.32 13.493l-82.369-47.555c1.091-4.317 1.677-8.833 1.677-13.484s-.586-9.168-1.677-13.485l33.746-19.483a109.173 109.173 0 0 1-15.033-25.961l-33.748 19.484a55.043 55.043 0 0 0-23.319-13.493v-95.094a55.027 55.027 0 0 0 23.319-13.493l33.748 19.484a109.153 109.153 0 0 1 15.033-25.961L135.312 169a54.918 54.918 0 0 0 1.677-13.485c0-4.651-.586-9.167-1.677-13.484l82.369-47.555a55.04 55.04 0 0 0 23.32 13.493v38.982c4.931-.668 9.939-1.015 15-1.015s10.069.347 15 1.015v-38.982a55.047 55.047 0 0 0 23.32-13.493l82.369 47.555c-1.091 4.317-1.677 8.833-1.677 13.484s.586 9.168 1.677 13.485l-33.746 19.483a109.173 109.173 0 0 1 15.033 25.961l33.748-19.484a55.037 55.037 0 0 0 23.319 13.493v95.094a55.033 55.033 0 0 0-23.319 13.493l-33.748-19.484a109.153 109.153 0 0 1-15.033 25.961L376.689 343a54.918 54.918 0 0 0-1.677 13.485c0 4.651.585 9.167 1.677 13.484l-82.369 47.555A55.026 55.026 0 0 0 271 404.031z" data-original="#000000"/><circle cx="256" cy="256" r="80.064" data-original="#000000"/></g></svg>